HIERARCHY
ROOT hip
{
  OFFSET 0 0 0
  CHANNELS 6 Xposition Yposition Zposition Zrotation Yrotation Xrotation
  JOINT abdomen
  {
    OFFSET 0 20.6881 -0.73152
    CHANNELS 3 Zrotation Xrotation Yrotation
    JOINT chest
    {
      OFFSET 0 11.7043 -0.48768
      CHANNELS 3 Zrotation Xrotation Yrotation
      JOINT neck
      {
        OFFSET 0 22.1894 -2.19456
        CHANNELS 3 Zrotation Xrotation Yrotation
        JOINT head
        {
          OFFSET -0.24384 7.07133 1.2192
          CHANNELS 3 Zrotation Xrotation Yrotation
          JOINT leftEye
          {
            OFFSET 4.14528 8.04674 8.04672
            CHANNELS 3 Zrotation Xrotation Yrotation
            End Site
            {
              OFFSET 1 0 0
            }
          }
          JOINT rightEye
          {
            OFFSET -3.6576 8.04674 8.04672
            CHANNELS 3 Zrotation Xrotation Yrotation
            End Site
            {
              OFFSET 1 0 0
            }
          }
        }
      }
      JOINT rCollar
      {
        OFFSET -2.68224 19.2634 -4.8768
        CHANNELS 3 Zrotation Xrotation Yrotation
        JOINT rShldr
        {
          OFFSET -8.77824 -1.95073 1.46304
          CHANNELS 3 Zrotation Xrotation Yrotation
          JOINT rForeArm
          {
            OFFSET -28.1742 -1.7115 0.48768
            CHANNELS 3 Zrotation Xrotation Yrotation
            JOINT rHand
            {
              OFFSET -22.5879 0.773209 7.07136
              CHANNELS 3 Zrotation Xrotation Yrotation
              JOINT rThumb1
              {
                OFFSET -1.2192 -0.487915 3.41376
                CHANNELS 3 Zrotation Xrotation Yrotation
                JOINT rThumb2
                {
                  OFFSET -3.37035 -0.52449 3.41376
                  CHANNELS 3 Zrotation Xrotation Yrotation
                  End Site
                  {
                    OFFSET -1.78271 -1.18214 1.43049
                  }
                }
              }
              JOINT rIndex1
              {
                OFFSET -7.75947 0.938293 5.60832
                CHANNELS 3 Zrotation Xrotation Yrotation
                JOINT rIndex2
                {
                  OFFSET -2.54057 -0.884171 1.56538
                  CHANNELS 3 Zrotation Xrotation Yrotation
                  End Site
                  {
                    OFFSET -1.62519 -0.234802 1.16502
                  }
                }
              }
              JOINT rMid1
              {
                OFFSET -8.24714 1.18213 3.41376
                CHANNELS 3 Zrotation Xrotation Yrotation
                JOINT rMid2
                {
                  OFFSET -3.10165 -0.590103 1.0647
                  CHANNELS 3 Zrotation Xrotation Yrotation
                  End Site
                  {
                    OFFSET -2.48547 -0.328903 0.83742
                  }
                }
              }
              JOINT rRing1
              {
                OFFSET -8.82822 0.546677 1.51678
                CHANNELS 3 Zrotation Xrotation Yrotation
                JOINT rRing2
                {
                  OFFSET -2.60934 -0.819778 -0.0198488
                  CHANNELS 3 Zrotation Xrotation Yrotation
                  End Site
                  {
                    OFFSET -2.33842 -0.294052 0.168128
                  }
                }
              }
              JOINT rPinky1
              {
                OFFSET -8.27202 -0.0477905 -0.4584
                CHANNELS 3 Zrotation Xrotation Yrotation
                JOINT rPinky2
                {
                  OFFSET -1.82734 -0.647385 -0.700984
                  CHANNELS 3 Zrotation Xrotation Yrotation
                  End Site
                  {
                    OFFSET -1.69225 -0.51767 -0.607171
                  }
                }
              }
            }
          }
        }
      }
      JOINT lCollar
      {
        OFFSET 2.68224 19.2634 -4.8768
        CHANNELS 3 Zrotation Xrotation Yrotation
        JOINT lShldr
        {
          OFFSET 8.77824 -1.95073 1.46304
          CHANNELS 3 Zrotation Xrotation Yrotation
          JOINT lForeArm
          {
            OFFSET 28.1742 -1.7115 0.48768
            CHANNELS 3 Zrotation Xrotation Yrotation
            JOINT lHand
            {
              OFFSET 22.5879 0.773209 7.07136
              CHANNELS 3 Zrotation Xrotation Yrotation
              JOINT lThumb1
              {
                OFFSET 1.2192 -0.487915 3.41376
                CHANNELS 3 Zrotation Xrotation Yrotation
                JOINT lThumb2
                {
                  OFFSET 3.37035 -0.52449 3.41376
                  CHANNELS 3 Zrotation Xrotation Yrotation
                  End Site
                  {
                    OFFSET 1.78271 -1.18214 1.43049
                  }
                }
              }
              JOINT lIndex1
              {
                OFFSET 7.75947 0.938293 5.60832
                CHANNELS 3 Zrotation Xrotation Yrotation
                JOINT lIndex2
                {
                  OFFSET 2.54057 -0.884171 1.56538
                  CHANNELS 3 Zrotation Xrotation Yrotation
                  End Site
                  {
                    OFFSET 1.62519 -0.234802 1.16502
                  }
                }
              }
              JOINT lMid1
              {
                OFFSET 8.24714 1.18213 3.41376
                CHANNELS 3 Zrotation Xrotation Yrotation
                JOINT lMid2
                {
                  OFFSET 3.10165 -0.590103 1.0647
                  CHANNELS 3 Zrotation Xrotation Yrotation
                  End Site
                  {
                    OFFSET 2.48547 -0.328903 0.83742
                  }
                }
              }
              JOINT lRing1
              {
                OFFSET 8.82822 0.546677 1.51678
                CHANNELS 3 Zrotation Xrotation Yrotation
                JOINT lRing2
                {
                  OFFSET 2.60934 -0.819778 -0.0198488
                  CHANNELS 3 Zrotation Xrotation Yrotation
                  End Site
                  {
                    OFFSET 2.33842 -0.294052 0.168128
                  }
                }
              }
              JOINT lPinky1
              {
                OFFSET 8.27202 -0.0477905 -0.4584
                CHANNELS 3 Zrotation Xrotation Yrotation
                JOINT lPinky2
                {
                  OFFSET 1.82734 -0.647385 -0.700984
                  CHANNELS 3 Zrotation Xrotation Yrotation
                  End Site
                  {
                    OFFSET 1.69225 -0.51767 -0.607171
                  }
                }
              }
            }
          }
        }
      }
    }
  }
  JOINT rButtock
  {
    OFFSET -8.77824 4.35084 1.2192
    CHANNELS 3 Zrotation Xrotation Yrotation
    JOINT rThigh
    {
      OFFSET 0 -1.70687 -2.19456
      CHANNELS 3 Zrotation Xrotation Yrotation
      JOINT rShin
      {
        OFFSET 0 -36.8199 0.73152
        CHANNELS 3 Zrotation Xrotation Yrotation
        JOINT rFoot
        {
          OFFSET 0.73152 -45.1104 -5.12064
          CHANNELS 3 Zrotation Xrotation Yrotation
          End Site
          {
            OFFSET -1.1221 -3.69964 12.103
          }
        }
      }
    }
  }
  JOINT lButtock
  {
    OFFSET 8.77824 4.35084 1.2192
    CHANNELS 3 Zrotation Xrotation Yrotation
    JOINT lThigh
    {
      OFFSET 0 -1.70687 -2.19456
      CHANNELS 3 Zrotation Xrotation Yrotation
      JOINT lShin
      {
        OFFSET 0 -36.8199 0.73152
        CHANNELS 3 Zrotation Xrotation Yrotation
        JOINT lFoot
        {
          OFFSET -0.73152 -45.1104 -5.12064
          CHANNELS 3 Zrotation Xrotation Yrotation
          End Site
          {
            OFFSET 1.1221 -3.69964 12.103
          }
        }
      }
    }
  }
}
MOTION
Frames:	8
Frame Time:	0.03333
-45.4569 58.8489 44.1511 8.075973 12.613236 2.093825 -13.864826 8.732561 -67.226206 3.277493 -0.700647 72.620124 -6.762791 24.126986 -155.512605 15.160935 30.877506 112.24004 -3.997521 -0.432151 12.335051 -0.277918 0.036831 -15.098374 -151.10543 9.116816 160.270156 -57.765478 -68.826207 -38.50159 14.868316 65.794457 -80.128656 154.983234 -26.907688 139.882977 -19.124223 -3.980392 0.948238 -125.644496 -58.277063 126.784478 3.078761 -10.343885 1.094842 -16.721954 -4.659862 2.191798 -147.606869 21.460277 128.330417 -145.632807 -20.0893 134.267537 -138.073271 -7.058314 -169.068856 -4.818958 -37.969 -49.556517 -141.116192 -47.886854 -119.248694 -129.637935 -52.697769 -91.161577 157.165074 -34.319434 -161.72656 -125.589383 -13.910717 -167.214958 -0.102123 -27.623903 -103.039931 16.840901 -10.95752 14.458287 -155.589125 -36.103774 -85.902699 32.985108 -44.391111 50.077291 -29.678496 -29.15565 -3.220939 166.39316 -33.652488 -95.311738 118.634021 25.893742 -113.209604 122.188566 -7.09546 -145.387385 -18.855621 10.555851 -16.828162 169.976016 79.158477 179.081275 45.932654 -62.890584 51.684877 5.814076 13.500951 11.573704 12.366255 -6.159601 13.485528 -67.207157 -35.315352 -150.676058 -69.298361 -9.604176 -109.455704 25.821704 32.120149 -135.693688 -103.478227 53.70216 -68.35991 -85.344502 77.357317 -4.239286 13.567556 -18.19929 -82.402135 29.045296 -12.449231 -14.854837
-46.5888 59.062599999999996 44.9255 7.651788 14.379242 1.843972 -13.524366 8.454208 -85.536097 2.586566 0.393407 91.298506 5.150237 18.795222 128.418057 -17.102065 27.113094 -164.115644 -3.943492 -0.106565 3.094622 -2.703777 0.663528 -27.572065 -151.918921 -58.585581 178.57348 -55.134948 -56.357137 -75.772127 3.205995 -1.292837 -70.873522 151.400924 -32.394238 137.128358 -167.325776 17.000726 83.103249 -137.987981 5.506176 51.733053 174.287807 -56.502497 112.81196 43.923821 -0.545957 4.900999 -164.588958 -10.141924 136.704214 -142.40024 1.939325 121.138008 -129.128634 -34.117085 -155.358437 -117.043322 -20.935518 -160.378614 -28.18582 -33.017669 -2.10294 9.882153 20.296205 -33.465173 68.378979 62.317287 -76.678032 65.630661 26.827211 -122.420184 -179.712326 -26.071902 78.474539 18.588316 -4.74388 12.473082 4.868824 -0.315751 3.080157 8.100275 12.355467 -38.475734 -17.311065 -14.163794 -6.075203 174.038895 -33.02942 -93.156186 96.803519 39.197403 -97.251686 -23.156662 -72.37595 42.202378 121.819071 6.22693 -165.295037 152.19906 -25.332034 -171.556464 136.708767 14.330775 152.89364 21.985423 -42.851785 8.82357 15.209233 -5.347818 16.323484 -70.551301 -32.271954 179.915528 -51.116463 -42.432413 44.393061 133.832321 53.619778 -54.184466 66.386046 67.201046 70.494817 -47.066244 31.271249 -132.115517 -5.725045 18.462489 71.20324 -132.769831 -20.49755 3.796676
-47.165400000000005 58.7017 45.3224 8.338841 8.081835 2.819716 -15.010779 5.953557 -87.523939 2.333008 1.663814 92.800855 -14.464844 13.136835 -56.308646 24.668837 -5.036172 18.240899 -11.453338 0.24888 -2.481383 -8.932525 2.674924 -33.283483 -151.688172 14.871594 159.806042 -23.052471 34.135876 -7.676422 36.844357 -9.786616 -58.151431 166.801394 5.751883 150.563228 -170.014968 15.284789 88.573888 -165.881361 4.623443 76.951121 -134.925794 17.197703 106.123233 -21.198446 66.820149 17.228123 5.06533 -18.082222 3.520166 -55.862521 -82.899196 -65.819045 -55.271673 77.048391 75.870286 173.125407 48.258173 -178.861028 -167.259471 42.702474 -165.686757 -52.74078 57.397857 97.664345 -13.292149 -40.237857 0.2752 77.221084 -25.493819 102.103074 -10.517762 -16.642989 134.476042 163.285046 4.228455 -130.534454 172.319217 3.199315 -90.887243 -149.938436 -71.467248 -143.155987 -153.384843 -57.447871 -81.6405 -178.636414 -55.349461 -106.775024 160.176888 -29.428772 -131.298165 160.153674 -21.219987 -113.890714 128.312184 -42.935855 -178.469723 -1.227746 29.33026 -13.045715 143.567363 35.785782 155.264311 -129.273495 76.386974 93.36666 2.473753 -5.942724 5.957403 -58.233861 -42.623044 2.398958 51.810893 38.795115 -110.29447 43.472148 39.253663 34.284354 49.711657 37.294286 61.353898 -27.342855 24.016599 -133.828224 -18.312566 21.440324 143.813506 -110.557462 27.810656 13.801341
-47.5551 58.1353 45.4498 8.632331 5.531804 3.534478 -19.845258 4.991305 75.582596 -0.617467 -6.790303 -70.202334 -13.444883 11.969144 -40.257027 20.173539 -11.409696 1.8576 -11.404322 0.318682 -3.190746 -9.526128 2.390914 -28.12024 -153.336707 6.806011 159.927071 -1.668764 64.915734 -23.721586 -80.887015 -75.674677 -153.166009 137.910729 -46.302135 124.637372 -6.914196 -13.486546 -4.058865 -32.588109 29.011259 39.593905 41.721298 -63.882489 9.440316 -173.729565 -24.957382 101.684138 147.075992 -70.353402 115.262721 -177.908851 3.459847 124.377494 2.763561 19.787053 4.217887 -148.168459 54.510289 140.927362 -29.614653 74.823915 40.337135 -114.708864 35.528369 -169.927428 -12.069233 -36.35092 0.727893 64.515261 -26.583384 100.147165 -131.153405 -13.723807 73.902475 52.10673 45.738952 -20.354038 170.221089 4.220449 -91.269882 -143.917892 -80.490806 -142.166432 -7.481691 1.074969 -15.109582 132.055524 24.54598 -97.337148 -55.730398 -58.578084 -19.592674 6.004663 -32.601916 -12.923987 -1.848162 39.062764 -38.513349 -14.067183 -1.432245 19.594508 142.523657 26.649477 153.462277 146.736335 -5.031621 131.083406 11.443278 -2.64053 17.443973 -74.376258 -36.77899 -175.135658 -70.498164 -22.523301 -131.341264 -41.343011 -36.857398 -136.614393 8.626138 -0.804852 24.73753 9.716174 16.587487 109.568257 25.247016 -23.402379 85.646835 -41.892033 20.966806 -177.927973
-47.9328 57.4843 45.567800000000005 8.854634 4.036698 3.855922 -19.465134 5.712294 43.697208 1.884969 -6.55858 -37.522081 2.713273 11.621608 60.039826 -22.453868 -3.062164 -101.79999 -11.220617 0.615841 -6.263031 -6.560006 1.297171 -22.347763 -156.828731 -64.356516 175.592803 -130.181522 -31.803308 -144.260085 -169.034426 -61.60535 -138.745042 1.077345 31.673928 -0.345386 -16.055892 -2.893345 -3.435689 -84.131771 8.478086 89.890428 -131.736421 19.71875 103.212508 -151.113726 -10.392549 122.689611 -4.654153 1.663298 5.01303 -4.818116 4.217212 -22.223094 5.423423 11.523303 1.491737 -160.31474 41.072428 150.371545 -16.2541 49.464021 16.796013 -119.617113 35.487481 -158.651263 -9.808797 -25.845744 -0.793685 -101.811032 31.124485 65.135825 -29.159875 2.967956 -105.756533 29.383537 22.154883 2.28977 159.733929 13.136924 -88.349639 126.29659 24.407423 -44.063081 -11.722503 -2.530874 -11.717964 10.461256 20.682508 -10.930971 -22.3435 -16.071863 -7.097213 77.908123 75.796494 -49.264842 89.425107 45.859316 -131.177535 -27.166741 32.817952 3.057948 135.985726 3.465407 148.294921 141.931925 -1.551192 130.660556 -19.667965 -5.795528 -7.285809 -29.77594 -52.750758 -33.671414 26.311978 67.706434 86.721763 -8.359406 4.862344 -92.148748 33.530386 17.556083 45.391057 -12.549902 16.499989 -114.85776 -28.615496 9.423567 -42.732095 145.686975 -6.282891 -162.407999
-48.4086 56.8847 45.8287 8.983839 4.096328 3.853824 -16.341263 5.992208 -43.319573 4.373837 -0.81483 49.357131 -15.142583 19.412457 -88.719311 28.889301 8.838432 46.513749 -11.778018 0.703773 -6.815108 -3.669461 0.519239 -16.102756 -136.515993 47.461446 141.836363 148.418099 -34.045978 166.109052 163.057522 -5.717468 109.492389 163.461213 -8.54966 146.591364 -5.04579 -14.959263 -2.560528 42.846822 -64.275492 -27.866105 -151.93146 -9.107649 116.5946 146.109926 -67.727176 75.198683 7.267116 -29.481507 1.209502 179.343266 -2.596818 158.339883 -138.171511 -0.84058 -175.913763 -97.840683 -55.204973 -137.043835 -150.257194 -32.538062 -120.709508 -18.137704 22.784719 -2.648505 163.989372 -60.838693 -162.999277 59.362363 5.371074 16.604171 166.238146 27.816885 83.798735 15.810736 -13.132389 15.556262 -164.98668 -25.071232 -90.259446 86.985126 42.500768 -28.582 6.626416 14.263541 -19.202798 52.013279 39.72536 -36.594169 50.686263 49.490991 -58.207088 66.051418 81.593768 -74.44546 -29.384036 -24.77857 -12.690644 -14.585803 78.940738 17.213726 -11.024896 7.870461 -15.439188 28.100459 -48.395198 28.849126 -30.457177 -3.777369 -17.37081 -7.537415 -55.703982 -10.753088 43.225752 69.119688 121.885984 121.814675 42.664076 172.850232 77.709728 68.512149 62.722899 -52.299663 40.952008 -133.80712 -8.759783 24.650721 90.922676 26.465066 -19.278614 -20.79321
-49.0267 56.430499999999995 46.267 8.96343 4.767468 3.657913 -15.505049 4.380167 -100.05007 1.222303 2.01595 105.629037 -13.865639 11.709814 -49.570599 21.536213 -6.71459 11.058611 -12.141832 0.664929 -6.245805 -0.535209 0.05194 -11.085789 -12.881645 43.242491 16.303727 -78.529065 38.347363 87.86213 179.942507 -22.488153 -147.980944 -2.275624 41.074564 -0.134155 -171.927307 10.313469 87.98692 130.566015 -44.840953 99.71261 -174.502655 -45.669137 117.53446 7.214728 22.160544 10.127025 -157.112207 13.41603 135.153226 -157.908794 -21.330474 126.018643 7.639237 14.289601 0.418084 111.277102 -81.087488 111.955589 173.68447 56.090175 -149.951846 -10.184253 -72.012333 -1.137612 112.558778 56.418157 -118.935387 112.90828 -8.318906 -109.797172 179.537967 35.385949 76.479658 19.089394 -0.675624 12.329192 6.782729 -0.622719 2.76047 111.338588 -28.494029 -101.508539 33.823573 29.077557 -37.210068 106.64499 39.683992 -73.297554 125.563022 24.738041 -119.401526 133.521859 3.725971 -133.790327 -32.669577 -37.150587 -11.29257 38.602382 -69.129938 44.128883 101.331858 70.865741 -154.251837 -12.467995 48.401833 -15.582428 115.584108 78.471717 47.437643 162.824891 16.834599 -67.729152 -64.386042 31.253299 165.24007 -0.082132 -29.315228 -77.169503 -50.527493 -1.727384 -25.631466 55.643934 42.138967 -126.488083 -17.718744 -14.674077 132.56956 -26.861641 -38.829338 35.725966
-49.9518 56.4854 46.7926 8.490161 6.94521 3.352973 -15.696252 7.640352 -32.677373 4.117238 -2.110901 38.039395 5.286882 13.378603 91.789544 -22.699449 10.906376 -128.805664 -9.103713 0.309976 -3.892075 3.765087 -0.250199 -7.60098 -2.136713 18.183724 4.750648 -120.78604 18.979829 130.089393 -175.845335 -3.263476 -146.613971 -1.065041 37.63995 -0.44575 -1.396811 -19.676386 0.282435 3.511485 15.925255 -1.112462 -8.1341 6.891608 6.251437 -170.953285 5.785706 115.693261 -107.601922 54.50256 92.510065 25.721966 2.149454 -2.721097 -138.846493 -3.974862 -172.178133 -112.774194 -39.863204 -145.791979 -24.443362 8.287108 4.478123 -122.407883 19.818631 -131.131491 133.729886 40.254678 -140.00647 -68.504504 -12.097376 -84.651846 -9.996001 -35.600888 -107.682965 19.233923 0.487251 11.859875 -134.034368 -46.693648 -74.390798 29.923356 15.038924 15.622057 129.051882 2.19949 -108.116285 168.935815 0.937876 -127.565516 -25.210423 -21.927165 -13.823877 16.724073 19.583763 18.5486 118.487568 9.960298 -156.720799 -19.08676 13.063704 -7.827047 53.012902 73.324496 -101.265257 -6.750862 -37.615985 -0.340741 -114.284671 73.763291 -59.067129 132.897331 5.959658 -99.69334 -67.39236 -15.963081 -171.478297 -74.346613 61.365435 1.496972 -119.914958 70.811787 -66.274715 -73.213467 65.033276 173.67453 -17.639738 10.339805 63.834535 -131.314227 -54.032811 -26.906522
